<svg width="512" height="512" viewBox="0 0 512 512" xmlns="http://www.w3.org/2000/svg">
  <defs>
    <linearGradient id="bg" x1="0" y1="0" x2="1" y2="1">
      <stop offset="0%" stop-color="#7FB5FF"/>
      <stop offset="100%" stop-color="#5A93F0"/>
    </linearGradient>
    <radialGradient id="glow" cx="50%" cy="42%" r="65%">
      <stop offset="0%" stop-color="#9FC8FF" stop-opacity="0.55"/>
      <stop offset="100%" stop-color="#9FC8FF" stop-opacity="0"/>
    </radialGradient>
  </defs>
  <rect width="512" height="512" rx="113" fill="url(#bg)"/>
  <rect width="512" height="512" rx="113" fill="url(#glow)"/>
  <g transform="translate(104.05 317.72) scale(1.330073)" fill="#FFFFFF">
    <path d="M66.88 -151.68Q75.52 -163.84 90.72 -172.00Q105.92 -180.16 125.44 -180.16Q148.16 -180.16 166.56 -168.96Q184.96 -157.76 195.68 -137.12Q206.40 -116.48 206.40 -89.28Q206.40 -62.08 195.68 -41.12Q184.96 -20.16 166.56 -8.64Q148.16 2.88 125.44 2.88Q105.92 2.88 91.04 -5.12Q76.16 -13.12 66.88 -25.28L66.88 84.48L22.08 84.48L22.08 -177.28L66.88 -177.28L66.88 -151.68Z"/>
  </g>
</svg>