<svg width="512" height="512" viewBox="0 0 512 512" xmlns="http://www.w3.org/2000/svg">
  <defs>
    <linearGradient id="bg" x1="0" y1="0" x2="1" y2="1">
      <stop offset="0%" stop-color="#7FB5FF"/>
      <stop offset="100%" stop-color="#5A93F0"/>
    </linearGradient>
    <radialGradient id="glow" cx="50%" cy="42%" r="65%">
      <stop offset="0%" stop-color="#9FC8FF" stop-opacity="0.55"/>
      <stop offset="100%" stop-color="#9FC8FF" stop-opacity="0"/>
    </radialGradient>
  </defs>
  <rect width="512" height="512" fill="url(#bg)"/>
  <rect width="512" height="512" fill="url(#glow)"/>
  <g transform="translate(-441.17 317.72) scale(1.330073)" fill="#FFFFFF" fill-rule="evenodd">
    <path d="M476.80 -151.68Q485.44 -163.84 500.64 -172.00Q515.84 -180.16 535.36 -180.16Q558.08 -180.16 576.48 -168.96Q594.88 -157.76 605.60 -137.12Q616.32 -116.48 616.32 -89.28Q616.32 -62.08 605.60 -41.12Q594.88 -20.16 576.48 -8.64Q558.08 2.88 535.36 2.88Q515.84 2.88 500.96 -5.12Q486.08 -13.12 476.80 -25.28L476.80 84.48L432.00 84.48L432.00 -177.28L476.80 -177.28L476.80 -151.68Z M570.56 -89.28Q570.56 -105.28 564.00 -116.96Q557.44 -128.64 546.72 -134.72Q536.00 -140.80 523.52 -140.80Q511.36 -140.80 500.64 -134.56Q489.92 -128.32 483.36 -116.48Q476.80 -104.64 476.80 -88.64Q476.80 -72.64 483.36 -60.80Q489.92 -48.96 500.64 -42.72Q511.36 -36.48 523.52 -36.48Q536.00 -36.48 546.72 -42.88Q557.44 -49.28 564.00 -61.12Q570.56 -72.96 570.56 -89.28Z"/>
  </g>
</svg>
