<svg width="512" height="512" viewBox="0 0 512 512" xmlns="http://www.w3.org/2000/svg">
  <rect width="512" height="512" rx="92" fill="#0A0C10"/>
  <g transform="translate(51.47 295.39) scale(0.451709)" fill="#F4F7FB">
    <path d="M66.88 -151.68Q75.52 -163.84 90.72 -172.00Q105.92 -180.16 125.44 -180.16Q148.16 -180.16 166.56 -168.96Q184.96 -157.76 195.68 -137.12Q206.40 -116.48 206.40 -89.28Q206.40 -62.08 195.68 -41.12Q184.96 -20.16 166.56 -8.64Q148.16 2.88 125.44 2.88Q105.92 2.88 91.04 -5.12Q76.16 -13.12 66.88 -25.28L66.88 84.48L22.08 84.48L22.08 -177.28L66.88 -177.28L66.88 -151.68Z M215.52 -89.28Q215.52 -116.16 226.24 -136.96Q236.96 -157.76 255.36 -168.96Q273.76 -180.16 296.48 -180.16Q316.32 -180.16 331.20 -172.16Q346.08 -164.16 355.04 -152.00L355.04 -177.28L400.16 -177.28L400.16 0.00L355.04 0.00L355.04 -25.92Q346.40 -13.44 331.20 -5.28Q316.00 2.88 296.16 2.88Q273.76 2.88 255.36 -8.64Q236.96 -20.16 226.24 -41.12Q215.52 -62.08 215.52 -89.28ZM355.04 -88.64Q355.04 -104.96 348.64 -116.64Q342.24 -128.32 331.36 -134.56Q320.48 -140.80 308.00 -140.80Q295.52 -140.80 284.96 -134.72Q274.40 -128.64 267.84 -116.96Q261.28 -105.28 261.28 -89.28Q261.28 -73.28 267.84 -61.28Q274.40 -49.28 285.12 -42.88Q295.84 -36.48 308.00 -36.48Q320.48 -36.48 331.36 -42.72Q342.24 -48.96 348.64 -60.64Q355.04 -72.32 355.04 -88.64Z M476.80 -151.68Q485.44 -163.84 500.64 -172.00Q515.84 -180.16 535.36 -180.16Q558.08 -180.16 576.48 -168.96Q594.88 -157.76 605.60 -137.12Q616.32 -116.48 616.32 -89.28Q616.32 -62.08 605.60 -41.12Q594.88 -20.16 576.48 -8.64Q558.08 2.88 535.36 2.88Q515.84 2.88 500.96 -5.12Q486.08 -13.12 476.80 -25.28L476.80 84.48L432.00 84.48L432.00 -177.28L476.80 -177.28L476.80 -151.68ZM570.56 -89.28Q570.56 -105.28 564.00 -116.96Q557.44 -128.64 546.72 -134.72Q536.00 -140.80 523.52 -140.80Q511.36 -140.80 500.64 -134.56Q489.92 -128.32 483.36 -116.48Q476.80 -104.64 476.80 -88.64Q476.80 -72.64 483.36 -60.80Q489.92 -48.96 500.64 -42.72Q511.36 -36.48 523.52 -36.48Q536.00 -36.48 546.72 -42.88Q557.44 -49.28 564.00 -61.12Q570.56 -72.96 570.56 -89.28Z M681.76 -236.80L681.76 0.00L636.96 0.00L636.96 -236.80Z M883.52 -177.28L773.76 83.84L726.08 83.84L764.48 -4.48L693.44 -177.28L743.68 -177.28L789.44 -53.44L835.84 -177.28Z"/>
  </g>
</svg>